<svg width="24" height="24" viewBox="0 0 24 24" fill="none" xmlns="http://www.w3.org/2000/svg">
<path d="M18.364 17.5563L12 24L5.636 17.5563C4.37734 16.2819 3.52019 14.6581 3.17293 12.8905C2.82567 11.1228 3.00391 9.29051 3.6851 7.62539C4.36629 5.96027 5.51984 4.53707 6.99988 3.53576C8.47992 2.53445 10.22 2 12 2C13.78 2 15.5201 2.53445 17.0001 3.53576C18.4802 4.53707 19.6337 5.96027 20.3149 7.62539C20.9961 9.29051 21.1743 11.1228 20.8271 12.8905C20.4798 14.6581 19.6227 16.2819 18.364 17.5563ZM12 15.1627C13.0609 15.1627 14.0783 14.736 14.8284 13.9765C15.5786 13.2169 16 12.1868 16 11.1126C16 10.0385 15.5786 9.00831 14.8284 8.24877C14.0783 7.48923 13.0609 7.06253 12 7.06253C10.9391 7.06253 9.92172 7.48923 9.17157 8.24877C8.42143 9.00831 8 10.0385 8 11.1126C8 12.1868 8.42143 13.2169 9.17157 13.9765C9.92172 14.736 10.9391 15.1627 12 15.1627ZM12 13.1377C11.4696 13.1377 10.9609 12.9243 10.5858 12.5445C10.2107 12.1648 10 11.6497 10 11.1126C10 10.5755 10.2107 10.0605 10.5858 9.6807C10.9609 9.30093 11.4696 9.08757 12 9.08757C12.5304 9.08757 13.0391 9.30093 13.4142 9.6807C13.7893 10.0605 14 10.5755 14 11.1126C14 11.6497 13.7893 12.1648 13.4142 12.5445C13.0391 12.9243 12.5304 13.1377 12 13.1377Z" fill="white"/>
</svg>
