<svg width="24" height="24" viewBox="0 0 24 24" fill="none" xmlns="http://www.w3.org/2000/svg">
<path d="M12 8V2H6C5.46957 2 4.96086 2.21071 4.58579 2.58579C4.21071 2.96086 4 3.46957 4 4V20C4 20.5304 4.21071 21.0391 4.58579 21.4142C4.96086 21.7893 5.46957 22 6 22H18C18.5304 22 19.0391 21.7893 19.4142 21.4142C19.7893 21.0391 20 20.5304 20 20V10H14C13.4696 10 12.9609 9.78929 12.5858 9.41421C12.2107 9.03914 12 8.53043 12 8ZM12 15C12.1989 15 12.3897 15.079 12.5303 15.2197C12.671 15.3603 12.75 15.5511 12.75 15.75V18.25C12.75 18.4489 12.671 18.6397 12.5303 18.7803C12.3897 18.921 12.1989 19 12 19C11.8011 19 11.6103 18.921 11.4697 18.7803C11.329 18.6397 11.25 18.4489 11.25 18.25V15.75C11.25 15.5511 11.329 15.3603 11.4697 15.2197C11.6103 15.079 11.8011 15 12 15ZM8.75 11C8.94891 11 9.13968 11.079 9.28033 11.2197C9.42098 11.3603 9.5 11.5511 9.5 11.75V18.25C9.5 18.4489 9.42098 18.6397 9.28033 18.7803C9.13968 18.921 8.94891 19 8.75 19C8.55109 19 8.36032 18.921 8.21967 18.7803C8.07902 18.6397 8 18.4489 8 18.25V11.75C8 11.5511 8.07902 11.3603 8.21967 11.2197C8.36032 11.079 8.55109 11 8.75 11ZM15.25 13C15.4489 13 15.6397 13.079 15.7803 13.2197C15.921 13.3603 16 13.5511 16 13.75V18.25C16 18.4489 15.921 18.6397 15.7803 18.7803C15.6397 18.921 15.4489 19 15.25 19C15.0511 19 14.8603 18.921 14.7197 18.7803C14.579 18.6397 14.5 18.4489 14.5 18.25V13.75C14.5 13.5511 14.579 13.3603 14.7197 13.2197C14.8603 13.079 15.0511 13 15.25 13ZM13.5 8V2.5L19.5 8.5H14C13.8674 8.5 13.7402 8.44732 13.6464 8.35355C13.5527 8.25979 13.5 8.13261 13.5 8Z" fill="white"/>
</svg>
